<svg cc="http://creativecommons.org/ns#" data-color="1" dc="http://purl.org/dc/elements/1.1/"
     fill="#322b6b"
     height="56" inkscape="http://www.inkscape.org/namespaces/inkscape"
     rdf="http://www.w3.org/1999/02/22-rdf-syntax-ns#" sodipodi="http://sodipodi.sourceforge.net/DTD/sodipodi-0.dtd"
     style="margin-right: 4px" svg="http://www.w3.org/2000/svg" version="1.1" viewBox="2 4 60 56" width="60"
     x="0px" xmlns="http://www.w3.org/2000/svg" y="0px">
  <g transform="translate(0,-988.36219)">
    <path d="M 28 4 L 28 30 L 36 30 L 36 4 L 28 4 z M 16 12 L 16 30 L 24 30 L 24 12 L 16 12 z M 52 14 L 52 30 L 60 30 L 60 14 L 52 14 z M 4 19 L 4 30 L 12 30 L 12 19 L 4 19 z M 40 21 L 40 30 L 48 30 L 48 21 L 40 21 z M 3.0351562 31 C 2.4620529 31 2 31.431297 2 31.966797 L 2 32.033203 C 2 32.568703 2.4620529 32.9997 3.0351562 33 L 4 33 L 4 33.814453 L 4.8144531 33 L 6.2285156 33 L 4 35.228516 L 4 36.642578 L 7.6425781 33 L 9.0566406 33 L 4 38.056641 L 4 39.470703 L 10.470703 33 L 11.884766 33 L 4 40.884766 L 4 42.298828 L 12 34.298828 L 12 33 L 16 33 L 16 34.119141 L 17.119141 33 L 18.533203 33 L 16 35.533203 L 16 36.947266 L 19.947266 33 L 21.361328 33 L 16.232422 38.130859 L 16 38.363281 L 16 39.777344 L 16.939453 38.837891 L 22.775391 33 L 28 33 L 28 34.119141 L 29.119141 33 L 30.533203 33 L 28 35.533203 L 28 36.947266 L 31.947266 33 L 33.361328 33 L 28.232422 38.130859 L 28 38.363281 L 28 39.777344 L 28.939453 38.837891 L 34.775391 33 L 40 33 L 40 34.119141 L 41.119141 33 L 42.533203 33 L 40 35.533203 L 40 36.947266 L 43.947266 33 L 45.361328 33 L 40.232422 38.130859 L 40 38.363281 L 40 39.777344 L 40.939453 38.837891 L 46.775391 33 L 52 33 L 52 34.119141 L 53.119141 33 L 54.533203 33 L 52 35.533203 L 52 36.947266 L 55.947266 33 L 57.361328 33 L 52.232422 38.130859 L 52 38.363281 L 52 39.777344 L 52.939453 38.837891 L 58.775391 33 L 60.964844 33 C 61.537948 33 62 32.568703 62 32.033203 L 62 31.966797 C 62 31.431297 61.537948 31 60.964844 31 L 3.0351562 31 z M 24 33.191406 L 17.646484 39.544922 L 16.232422 40.958984 L 16 41.191406 L 16 42.605469 L 16.939453 41.666016 L 18.353516 40.251953 L 24 34.605469 L 24 33.191406 z M 36 33.191406 L 29.646484 39.544922 L 28.232422 40.958984 L 28 41.191406 L 28 42.605469 L 28.939453 41.666016 L 30.353516 40.251953 L 36 34.605469 L 36 33.191406 z M 48 33.191406 L 41.646484 39.544922 L 40.232422 40.958984 L 40 41.191406 L 40 42.605469 L 40.939453 41.666016 L 42.353516 40.251953 L 48 34.605469 L 48 33.191406 z M 60 33.191406 L 53.646484 39.544922 L 52.232422 40.958984 L 52 41.191406 L 52 42.605469 L 52.939453 41.666016 L 54.353516 40.251953 L 60 34.605469 L 60 33.191406 z M 12 35.712891 L 4 43.712891 L 4 45 L 4.1855469 45 L 4.15625 44.970703 L 12 37.126953 L 12 35.712891 z M 24 36.019531 L 19.060547 40.958984 L 17.646484 42.373047 L 16 44.019531 L 16 45.433594 L 19.767578 41.666016 L 24 37.433594 L 24 36.019531 z M 36 36.019531 L 31.060547 40.958984 L 29.646484 42.373047 L 28 44.019531 L 28 45.433594 L 31.767578 41.666016 L 36 37.433594 L 36 36.019531 z M 48 36.019531 L 43.060547 40.958984 L 41.646484 42.373047 L 41.019531 43 L 42.433594 43 L 43.767578 41.666016 L 48 37.433594 L 48 36.019531 z M 60 36.019531 L 55.060547 40.958984 L 53.646484 42.373047 L 52 44.019531 L 52 45.433594 L 55.767578 41.666016 L 60 37.433594 L 60 36.019531 z M 12 38.541016 L 5.5410156 45 L 6.9550781 45 L 12 39.955078 L 12 38.541016 z M 24 38.847656 L 20.474609 42.373047 L 16 46.847656 L 16 48.261719 L 21.181641 43.080078 L 24 40.261719 L 24 38.847656 z M 36 38.847656 L 32.474609 42.373047 L 28 46.847656 L 28 48.261719 L 33.181641 43.080078 L 36 40.261719 L 36 38.847656 z M 48 38.847656 L 44.474609 42.373047 L 43.847656 43 L 45.261719 43 L 48 40.261719 L 48 38.847656 z M 60 38.847656 L 56.474609 42.373047 L 52 46.847656 L 52 48.261719 L 57.181641 43.080078 L 60 40.261719 L 60 38.847656 z M 12 41.369141 L 8.3691406 45 L 9.7832031 45 L 12 42.783203 L 12 41.369141 z M 24 41.675781 L 21.888672 43.787109 L 16 49.675781 L 16 51.091797 L 22.595703 44.494141 L 24 43.089844 L 24 41.675781 z M 36 41.675781 L 33.888672 43.787109 L 28 49.675781 L 28 51.091797 L 34.595703 44.494141 L 36 43.089844 L 36 41.675781 z M 48 41.675781 L 46.675781 43 L 48 43 L 48 41.675781 z M 60 41.675781 L 57.888672 43.787109 L 52 49.675781 L 52 50 L 53.091797 50 L 58.595703 44.494141 L 60 43.089844 L 60 41.675781 z M 12 44.199219 L 11.199219 45 L 12 45 L 12 44.199219 z M 24 44.503906 L 23.302734 45.201172 L 16.505859 52 L 17.919922 52 L 24 45.917969 L 24 44.503906 z M 36 44.503906 L 35.302734 45.201172 L 28 52.505859 L 28 53.919922 L 36 45.917969 L 36 44.503906 z M 60 44.503906 L 59.302734 45.201172 L 54.505859 50 L 55.919922 50 L 60 45.917969 L 60 44.503906 z M 24 47.332031 L 19.333984 52 L 20.746094 52 L 24 48.746094 L 24 47.332031 z M 36 47.332031 L 28 55.333984 L 28 56.748047 L 36 48.746094 L 36 47.332031 z M 60 47.332031 L 57.332031 50 L 58.746094 50 L 60 48.746094 L 60 47.332031 z M 24 50.160156 L 22.160156 52 L 23.574219 52 L 24 51.574219 L 24 50.160156 z M 36 50.160156 L 28 58.162109 L 28 59.576172 L 36 51.574219 L 36 50.160156 z M 36 52.990234 L 28.990234 60 L 30.404297 60 L 36 54.404297 L 36 52.990234 z M 36 55.818359 L 31.818359 60 L 33.232422 60 L 36 57.232422 L 36 55.818359 z M 36 58.646484 L 34.646484 60 L 36 60 L 36 58.646484 z "
          style=""
          transform="translate(0,988.36219)"></path>
  </g>
</svg>

